<svg id="Capa_1" data-name="Capa 1" xmlns="http://www.w3.org/2000/svg" viewBox="0 0 1181 303"><defs><style>.cls-1{fill:#020000;}.cls-2{font-size:136px;font-family:FONTSPRINGDEMO-HalcyonBoldRegular, FONTSPRING DEMO - Halcyon Bold;}.cls-3{letter-spacing:0em;}</style></defs><title>trellunaHorizontal</title><path class="cls-1" d="M115,218,93.42,239.44h-.54l-21.43,21.6h0L50,282.65v.22h86.31v0h43.4v0h43.42v.51l21.44-22h0l21.43-22h0L287.61,218Zm64.75,22h0Zm-43.41,0h0Zm21.94,21.45h0Z" transform="translate(-50 -218)"/><path class="cls-1" d="M287,283.39l-21.44,21.7v-.25h0l-22,21.59v.38h0L222.1,348.37V521l21.44-21.57h0v-.1L265.41,478h0L287,456.12V456h.52L287,412.6h0v.52h0V369.18h.52v.52H287V326.28h.52v.53H287V283.39ZM244.07,456h0Z" transform="translate(-50 -218)"/><path class="cls-1" d="M352,218l-21.56,21.44h0l-21.44,21.6h0l-21.45,21.59v.22H373.8v0l0,0h42.87v0h43.42v-.54l21.43-21.44h0L503,239.45h0L524.58,218Zm64.75,21.45h0Zm-42.88,0h0Zm21.41,21.44h0Z" transform="translate(-50 -218)"/><text class="cls-2" transform="translate(475 199.07)">TREL<tspan class="cls-3" x="324.24" y="0">L</tspan><tspan x="402.78" y="0">UNA</tspan></text></svg>