<svg id="Capa_1" data-name="Capa 1" xmlns="http://www.w3.org/2000/svg" viewBox="0 0 907.23 792.29"><defs><style>.cls-1{fill:#020000;}.cls-2{font-size:176px;font-family:FONTSPRINGDEMO-HalcyonBoldRegular, FONTSPRING DEMO - Halcyon Bold;}.cls-3{letter-spacing:0em;}</style></defs><title>trellunaText</title><path class="cls-1" d="M171.23,139,130,180v0h-1L88,221.29v0L47,262.6v.4H212v0l0,0h83l0,0v0h83v1l41-42h0v0l41-42h0v0l41.23-41ZM295,181h0l0,0Zm-83,0h0v0ZM254,222l0,0v0Z" transform="translate(-47 -139)"/><path class="cls-1" d="M500,264l-41,41.49V305h0l-42,41.29V347h0l-41,41.23v330L417,677h0v-.2L458.79,636h0L500,594.2V594h1l-1-83h0v1h0V428h1v1h-1V346h1v1h-1V264ZM418,594v0l0,0Z" transform="translate(-47 -139)"/><path class="cls-1" d="M624.23,139,583,180v0h0l-41,41.29v0L501,262.6v.4H666v0l0,0h82l0,0v0h83v-1l41-41h0v0l41-41h0v0l41.23-41ZM748,180h0l0,0Zm-82,0h0v0ZM707,221l0,0v0Z" transform="translate(-47 -139)"/><text class="cls-2" transform="translate(0 743.74)">TREL<tspan class="cls-3" x="419.61" y="0">L</tspan><tspan x="521.24" y="0">UNA</tspan></text></svg>